<?xml version="1.0" encoding="UTF-8" standalone="no"?> <!-- Created with Vectornator for iOS (http://vectornator.io/) --><!DOCTYPE svg PUBLIC "-//W3C//DTD SVG 1.1//EN" "http://www.w3.org/Graphics/SVG/1.1/DTD/svg11.dtd">
<svg height="100%" style="fill-rule:nonzero;clip-rule:evenodd;stroke-linecap:round;stroke-linejoin:round;" xmlns:xlink="http://www.w3.org/1999/xlink" xmlns="http://www.w3.org/2000/svg" xml:space="preserve" width="100%" xmlns:vectornator="http://vectornator.io" version="1.1" viewBox="0 0 942.4 752.653">
<metadata>
<vectornator:setting key="DimensionsVisible" value="1"/>
<vectornator:setting key="PencilOnly" value="0"/>
<vectornator:setting key="SnapToPoints" value="0"/>
<vectornator:setting key="OutlineMode" value="0"/>
<vectornator:setting key="CMYKEnabledKey" value="0"/>
<vectornator:setting key="RulersVisible" value="1"/>
<vectornator:setting key="SnapToEdges" value="0"/>
<vectornator:setting key="GuidesVisible" value="1"/>
<vectornator:setting key="DisplayWhiteBackground" value="0"/>
<vectornator:setting key="doHistoryDisabled" value="0"/>
<vectornator:setting key="SnapToGuides" value="1"/>
<vectornator:setting key="TimeLapseWatermarkDisabled" value="0"/>
<vectornator:setting key="Units" value="Points"/>
<vectornator:setting key="DynamicGuides" value="0"/>
<vectornator:setting key="IsolateActiveLayer" value="0"/>
<vectornator:setting key="SnapToGrid" value="0"/>
</metadata>
<defs>
<path d="M5.79147+7.68733L935.94+7.68733L935.94+760.803L5.79147+760.803L5.79147+7.68733Z" id="Mask"/>
</defs>
<g id="Layer 1" vectornator:layerName="Layer 1">
<g opacity="1" vectornator:mask="#Mask">
<clipPath id="ClipPath">
<use xlink:href="#Mask" fill="none" overflow="visible"/>
</clipPath>
<g clip-path="url(#ClipPath)">
<g opacity="1">
<g opacity="1">
<path d="M462.611+50.4811C279.566+50.4767+131.178+198.865+131.182+381.909C131.188+564.947+279.574+713.323+462.611+713.319C645.649+713.323+794.034+564.947+794.04+381.909C794.044+198.865+645.656+50.4767+462.611+50.4811ZM396.371+125.133C533.507+122.262+654.304+229.917+675.82+374.181C698.961+529.297+599.47+670.177+453.6+688.848C307.727+707.516+170.713+596.902+147.572+441.784C124.432+286.668+223.922+145.789+369.792+127.117C378.598+125.986+387.469+125.324+396.371+125.133Z" opacity="1" fill="#ffffff"/>
<path d="M429.869+239.446C187.949+304.268+8.93711+420.634+30.041+499.35C42.1434+543.646+79.7038+568.382+195.26+566.267C105.402+564.145+85.7552+542.134+75.8033+505.679C56.6862+434.35+218.894+328.909+438.102+270.173C657.311+211.436+850.508+221.646+869.615+292.978C879.279+329.8+840.309+377.756+762.475+424.825C864.734+368.593+917.885+309.297+906.083+264.617C885.001+185.893+671.789+174.623+429.869+239.446Z" opacity="1" fill="#ffffff"/>
</g>
<path d="" opacity="1" fill="#ffffff"/>
<g opacity="1">
<path d="M1112.62+203.915L1480.87+203.915L1480.87+203.915L1480.87+572.159L1480.87+572.159L1112.62+572.159L1112.62+572.159L1112.62+203.915L1112.62+203.915Z" opacity="1" fill="none"/>
<g opacity="1">
<path d="M1297.78+518.181C1288.96+518.181+1280.12+517.312+1271.55+515.541C1263.19+513.814+1254.99+511.277+1247.13+507.944C1239.41+504.7+1231.99+500.664+1225.02+495.969C1218.13+491.307+1211.64+485.934+1205.76+480.076C1199.87+474.165+1194.52+467.699+1189.86+460.817C1185.16+453.846+1181.12+446.418+1177.86+438.7C1174.53+430.838+1171.99+422.619+1170.29+414.26C1168.52+405.687+1167.63+396.867+1167.63+388.048C1167.63+379.206+1168.52+370.387+1170.29+361.796C1171.99+353.455+1174.53+345.236+1177.86+337.374C1181.13+329.656+1185.16+322.232+1189.86+315.261C1194.52+308.375+1199.87+301.886+1205.76+296.02C1211.64+290.114+1218.13+284.767+1225.02+280.127C1231.99+275.428+1239.41+271.388+1247.13+268.104C1254.99+264.797+1263.19+262.238+1271.55+260.533C1280.12+258.784+1288.96+257.892+1297.78+257.892C1313.74+257.892+1329.32+260.743+1344.11+266.358C1345.19+266.774+1345.9+267.813+1345.9+268.976C1345.9+270.14+1345.19+271.182+1344.11+271.598C1296.1+289.863+1263.86+336.667+1263.86+388.048C1263.86+439.411+1296.1+486.188+1344.11+504.494C1345.19+504.91+1345.9+505.934+1345.9+507.097C1345.9+508.243+1345.19+509.285+1344.11+509.693C1329.32+515.331+1313.74+518.181+1297.78+518.181ZM1297.78+263.464C1229.1+263.464+1173.22+319.36+1173.22+388.048C1173.22+456.736+1229.09+512.606+1297.78+512.606C1310.62+512.606+1323.18+510.673+1335.27+506.865C1325.68+502.579+1316.65+497.133+1308.33+490.641C1298.16+482.672+1289.24+473.271+1281.83+462.706C1274.3+451.99+1268.48+440.257+1264.48+427.859C1260.37+415.048+1258.29+401.629+1258.29+388.044C1258.29+374.441+1260.37+361.045+1264.48+348.211C1268.48+335.791+1274.3+324.058+1281.83+313.368C1289.24+302.8+1298.16+293.398+1308.33+285.452C1316.66+278.941+1325.68+273.491+1335.27+269.205C1323.18+265.401+1310.62+263.464+1297.78+263.464Z" opacity="1" fill="#ffffff"/>
<path d="M1364.04+443.712C1363.6+443.712+1363.16+443.59+1362.74+443.38L1343.11+433.058L1323.47+443.38C1322.51+443.877+1321.39+443.796+1320.52+443.17C1319.66+442.544+1319.23+441.487+1319.41+440.445L1323.18+418.579L1307.29+403.087C1306.52+402.358+1306.25+401.231+1306.58+400.237C1306.92+399.22+1307.79+398.488+1308.83+398.318L1330.79+395.14L1340.61+375.233C1341.07+374.298+1342.05+373.694+1343.11+373.694C1344.17+373.694+1345.15+374.298+1345.61+375.233L1355.42+395.14L1377.39+398.318C1378.43+398.488+1379.31+399.217+1379.64+400.237C1379.97+401.235+1379.68+402.358+1378.93+403.087L1363.04+418.579L1366.78+440.445C1366.97+441.487+1366.54+442.544+1365.68+443.17C1365.2+443.524+1364.62+443.712+1364.04+443.712ZM1315.23+403.047L1328.11+415.589C1328.78+416.252+1329.09+417.172+1328.93+418.086L1325.89+435.809L1341.82+427.446C1342.61+427.015+1343.59+427.015+1344.4+427.446L1360.33+435.809L1357.3+418.086C1357.13+417.172+1357.44+416.252+1358.09+415.589L1370.99+403.047L1353.18+400.443C1352.26+400.322+1351.47+399.74+1351.08+398.926L1343.11+382.786L1335.15+398.926C1334.75+399.74+1333.96+400.322+1333.05+400.443L1315.23+403.047Z" opacity="1" fill="#ffffff"/>
<path d="M1415.77+453.529C1415.33+453.529+1414.88+453.407+1414.48+453.198L1403.97+447.667L1393.47+453.198C1392.53+453.695+1391.39+453.614+1390.53+452.988C1389.66+452.362+1389.24+451.305+1389.41+450.241L1391.43+438.553L1382.92+430.274C1382.17+429.527+1381.88+428.418+1382.21+427.406C1382.55+426.408+1383.42+425.657+1384.46+425.506L1396.21+423.801L1401.47+413.17C1401.93+412.212+1402.91+411.608+1403.97+411.608C1405.03+411.608+1406.01+412.212+1406.47+413.17L1411.71+423.801L1423.46+425.506C1424.52+425.657+1425.39+426.404+1425.73+427.406C1426.04+428.418+1425.77+429.527+1425.02+430.274L1416.51+438.553L1418.53+450.241C1418.7+451.305+1418.28+452.362+1417.41+452.988C1416.94+453.323+1416.35+453.529+1415.77+453.529ZM1403.98+441.719C1404.42+441.719+1404.87+441.841+1405.27+442.051L1412.07+445.626L1410.76+438.059C1410.62+437.138+1410.93+436.225+1411.57+435.599L1417.09+430.234L1409.48+429.111C1408.56+428.982+1407.79+428.418+1407.38+427.594L1403.98+420.704L1400.57+427.594C1400.18+428.422+1399.39+428.982+1398.49+429.111L1390.88+430.234L1396.37+435.599C1397.04+436.225+1397.33+437.138+1397.19+438.059L1395.89+445.626L1402.7+442.051C1403.08+441.841+1403.52+441.719+1403.98+441.719Z" opacity="1" fill="#ffffff"/>
<path d="M1376.31+490.729C1375.87+490.729+1375.44+490.622+1375.02+490.39L1364.37+484.815L1353.72+490.39C1352.78+490.895+1351.64+490.806+1350.78+490.18C1349.93+489.562+1349.49+488.519+1349.68+487.485L1351.72+475.624L1343.11+467.217C1342.34+466.469+1342.06+465.368+1342.4+464.348C1342.73+463.35+1343.6+462.599+1344.65+462.455L1356.54+460.728L1361.86+449.953C1362.33+448.996+1363.3+448.392+1364.36+448.392C1365.42+448.392+1366.4+448.996+1366.86+449.953L1372.18+460.728L1384.08+462.455C1385.14+462.599+1386.01+463.346+1386.33+464.348C1386.66+465.368+1386.39+466.469+1385.64+467.217L1377.03+475.624L1379.04+487.485C1379.23+488.519+1378.8+489.562+1377.94+490.18C1377.48+490.563+1376.9+490.729+1376.31+490.729ZM1364.37+478.868C1364.83+478.868+1365.26+478.975+1365.66+479.199L1372.61+482.823L1371.28+475.126C1371.13+474.206+1371.45+473.293+1372.09+472.622L1377.71+467.176L1369.95+466.046C1369.03+465.902+1368.24+465.342+1367.85+464.506L1364.38+457.48L1360.92+464.506C1360.51+465.342+1359.72+465.902+1358.8+466.046L1351.06+467.176L1356.68+472.622C1357.32+473.293+1357.63+474.206+1357.47+475.126L1356.14+482.823L1363.09+479.199C1363.48+478.975+1363.93+478.868+1364.37+478.868Z" opacity="1" fill="#ffffff"/>
</g>
</g>
<path d="M1725.74+205.45C1697.56+205.45+1671.42+210.062+1647.33+219.287C1623.75+228.512+1603.25+241.325+1585.83+257.726C1568.91+273.101+1555.59+292.576+1545.85+316.153C1537.65+336.141+1533.04+357.923+1532.01+381.498L1532.01+404.562L1599.66+404.562L1599.66+381.498C1600.69+364.072+1603.51+349.979+1608.12+339.215C1614.27+324.353+1622.73+311.028+1633.49+299.24C1646.3+287.452+1659.63+278.74+1673.47+273.102C1689.35+266.952+1706.78+263.877+1725.74+263.877L1822.61+263.877L1822.61+205.45L1725.74+205.45L1725.74+205.45ZM1754.96+378.423L1754.96+393.029L1755.73+393.029C1754.7+409.429+1751.63+424.548+1746.5+438.387C1739.84+454.275+1731.38+467.344+1721.13+477.594C1709.86+488.87+1696.53+497.583+1681.16+503.733C1665.27+509.883+1647.84+512.958+1628.88+512.958L1532.02+512.958L1532.02+571.385L1628.88+571.385C1657.07+571.385+1683.21+566.772+1707.3+557.547C1730.87+548.321+1751.37+535.508+1768.8+519.108C1786.74+501.17+1800.06+481.695+1808.77+460.682C1818+440.181+1822.61+417.631+1822.61+393.03L1822.61+378.423L1754.96+378.423L1754.96+378.423ZM1973.9+204.683L1902.41+204.683L2045.4+426.857L2045.4+572.159L2115.35+572.159L2115.35+425.322L1973.9+204.683ZM2259.12+204.683L2192.23+204.683L2107.67+325.384L2145.34+376.123L2259.12+204.683ZM2325.08+571.388L2388.89+571.388L2388.89+375.35L2325.08+285.404L2325.08+571.392L2325.08+571.388ZM2580.31+205.45L2580.31+458.375L2399.66+205.45L2330.47+205.45L2590.31+571.391L2643.35+571.391L2643.35+205.45C2643.35+205.45+2580.31+205.45+2580.31+205.45ZM2762.36+314.619C2771.58+292.069+2784.91+272.849+2802.33+256.961C2818.22+241.073+2838.72+228.26+2863.83+218.522C2888.95+208.784+2915.34+203.915+2943.02+203.915L3028.35+203.915L3028.35+262.342L2943.79+262.342C2923.8+262.342+2906.12+265.673+2890.74+272.336C2874.34+278.999+2861.02+287.711+2850.77+298.475C2840+308.724+2831.29+322.05+2824.63+338.45C2818.48+353.313+2815.4+369.969+2815.4+388.42C2815.4+406.87+2818.48+423.527+2824.63+438.39C2830.78+453.765+2839.49+467.09+2850.77+478.366C2861.02+488.615+2874.34+497.072+2890.74+503.735C2907.14+509.885+2924.82+512.96+2943.79+512.96L3028.35+512.96L3028.35+571.387L2943.02+571.387C2914.32+571.387+2888.18+566.774+2864.6+557.549C2840+547.299+2819.24+534.229+2802.33+518.341C2784.91+501.941+2771.58+482.465+2762.36+459.915C2752.62+436.339+2747.75+412.251+2747.75+387.65C2747.75+361.511+2752.62+337.168+2762.36+314.617L2762.36+314.619Z" opacity="1" fill="#dcbdfc"/>
</g>
</g>
</g>
</g>
</svg>
