<?xml version="1.0" encoding="UTF-8" standalone="no"?> <!-- Created with Vectornator for iOS (http://vectornator.io/) --><!DOCTYPE svg PUBLIC "-//W3C//DTD SVG 1.1//EN" "http://www.w3.org/Graphics/SVG/1.1/DTD/svg11.dtd">
<svg height="100%" style="fill-rule:nonzero;clip-rule:evenodd;stroke-linecap:round;stroke-linejoin:round;" xmlns:xlink="http://www.w3.org/1999/xlink" xmlns="http://www.w3.org/2000/svg" xml:space="preserve" width="100%" xmlns:vectornator="http://vectornator.io" version="1.1" viewBox="0 0 1959.03 449.382">
<metadata>
<vectornator:setting key="DimensionsVisible" value="1"/>
<vectornator:setting key="PencilOnly" value="0"/>
<vectornator:setting key="SnapToPoints" value="0"/>
<vectornator:setting key="OutlineMode" value="0"/>
<vectornator:setting key="CMYKEnabledKey" value="0"/>
<vectornator:setting key="RulersVisible" value="1"/>
<vectornator:setting key="SnapToEdges" value="0"/>
<vectornator:setting key="GuidesVisible" value="1"/>
<vectornator:setting key="DisplayWhiteBackground" value="0"/>
<vectornator:setting key="doHistoryDisabled" value="0"/>
<vectornator:setting key="SnapToGuides" value="1"/>
<vectornator:setting key="TimeLapseWatermarkDisabled" value="0"/>
<vectornator:setting key="Units" value="Points"/>
<vectornator:setting key="DynamicGuides" value="0"/>
<vectornator:setting key="IsolateActiveLayer" value="0"/>
<vectornator:setting key="SnapToGrid" value="0"/>
</metadata>
<defs>
<path d="M-40.89-44.0925L1998.75-44.0925L1998.75+508.251L-40.89+508.251L-40.89-44.0925Z" id="Mask"/>
</defs>
<g id="Layer 1" vectornator:layerName="Layer 1">
<g opacity="1" vectornator:mask="#Mask">
<clipPath id="ClipPath">
<use xlink:href="#Mask" fill="none" overflow="visible"/>
</clipPath>
<g clip-path="url(#ClipPath)">
<g opacity="1">
<g opacity="1">
<path d="M-653.89-111.334C-836.935-111.338-985.323+37.0497-985.319+220.094C-985.313+403.132-836.928+551.508-653.89+551.504C-470.853+551.508-322.468+403.132-322.461+220.094C-322.457+37.0498-470.845-111.338-653.89-111.334ZM-720.13-36.6816C-582.994-39.553-462.198+68.102-440.681+212.366C-417.54+367.482-517.031+508.362-662.901+527.033C-808.775+545.701-945.788+435.087-968.929+279.969C-992.07+124.854-892.579-16.026-746.709-34.6975C-737.903-35.8288-729.032-36.491-720.13-36.6816Z" opacity="1" fill="#ffffff"/>
<path d="M-686.632+77.6313C-928.552+142.453-1107.56+258.819-1086.46+337.535C-1074.36+381.831-1036.8+406.567-921.241+404.452C-1011.1+402.33-1030.75+380.319-1040.7+343.864C-1059.82+272.535-897.607+167.094-678.399+108.358C-459.19+49.6207-265.993+59.8312-246.887+131.163C-237.222+167.985-276.192+215.941-354.026+263.01C-251.768+206.778-198.617+147.482-210.419+102.802C-231.5+24.0784-444.712+12.8085-686.632+77.6313Z" opacity="1" fill="#ffffff"/>
</g>
<path d="" opacity="1" fill="#ffffff"/>
<g opacity="1">
<path d="M-3.8782+42.1003L364.365+42.1003L364.365+42.1003L364.365+410.344L364.365+410.344L-3.8782+410.344L-3.8782+410.344L-3.8782+42.1003L-3.8782+42.1003Z" opacity="1" fill="none"/>
<g opacity="1">
<path d="M181.282+356.367C172.462+356.367+163.621+355.497+155.052+353.726C146.689+351.999+138.492+349.462+130.63+346.129C122.912+342.885+115.488+338.849+108.517+334.154C101.631+329.492+95.1424+324.119+89.2542+318.261C83.366+312.35+78.0228+305.884+73.3608+299.002C68.662+292.031+64.6224+284.603+61.3598+276.885C58.0309+269.023+55.4937+260.804+53.7887+252.445C52.0211+243.872+51.1263+235.052+51.1263+226.233C51.1263+217.391+52.0211+208.572+53.7887+199.981C55.4937+191.64+58.0309+183.421+61.3598+175.559C64.6261+167.841+68.662+160.417+73.3608+153.446C78.0228+146.56+83.366+140.071+89.2542+134.205C95.1424+128.299+101.631+122.952+108.517+118.312C115.488+113.613+122.912+109.574+130.63+106.289C138.492+102.982+146.689+100.423+155.052+98.7177C163.621+96.9686+172.462+96.0774+181.282+96.0774C197.238+96.0774+212.822+98.9276+227.611+104.543C228.693+104.959+229.4+105.998+229.4+107.162C229.4+108.325+228.693+109.367+227.611+109.783C179.599+128.048+147.356+174.852+147.356+226.233C147.356+277.596+179.599+324.374+227.611+342.679C228.693+343.095+229.4+344.119+229.4+345.282C229.4+346.428+228.693+347.47+227.611+347.879C212.822+353.516+197.238+356.367+181.282+356.367ZM181.282+101.649C112.597+101.649+56.7199+157.545+56.7199+226.233C56.7199+294.921+112.593+350.791+181.282+350.791C194.119+350.791+206.683+348.858+218.769+345.05C209.18+340.764+200.151+335.318+191.832+328.826C181.658+320.857+172.735+311.456+165.33+300.891C157.799+290.175+151.977+278.443+147.982+266.044C143.865+253.233+141.784+239.814+141.784+226.229C141.784+212.626+143.865+199.23+147.982+186.396C151.977+173.976+157.803+162.243+165.33+151.553C172.735+140.985+181.658+131.583+191.832+123.637C200.154+117.126+209.18+111.676+218.769+107.39C206.683+103.586+194.119+101.649+181.282+101.649Z" opacity="1" fill="#ffffff"/>
<path d="M247.536+281.897C247.098+281.897+246.663+281.775+246.244+281.565L226.609+271.243L206.971+281.565C206.013+282.062+204.894+281.981+204.017+281.355C203.163+280.729+202.725+279.672+202.913+278.63L206.676+256.764L190.786+241.272C190.017+240.543+189.748+239.416+190.079+238.422C190.414+237.406+191.287+236.673+192.326+236.503L214.291+233.325L224.109+213.418C224.569+212.483+225.548+211.879+226.609+211.879C227.67+211.879+228.649+212.483+229.106+213.418L238.923+233.325L260.889+236.503C261.931+236.673+262.807+237.402+263.135+238.422C263.47+239.42+263.179+240.543+262.432+241.272L246.538+256.764L250.283+278.63C250.471+279.672+250.037+280.729+249.182+281.355C248.704+281.709+248.122+281.897+247.536+281.897ZM198.733+241.232L211.61+253.774C212.277+254.437+212.59+255.357+212.424+256.271L209.386+273.994L225.32+265.631C226.112+265.201+227.088+265.201+227.898+265.631L243.832+273.994L240.797+256.271C240.628+255.357+240.941+254.437+241.585+253.774L254.485+241.232L236.677+238.628C235.763+238.507+234.972+237.925+234.578+237.111L226.613+220.971L218.644+237.111C218.25+237.925+217.458+238.507+216.545+238.628L198.733+241.232Z" opacity="1" fill="#ffffff"/>
<path d="M299.271+291.714C298.833+291.714+298.376+291.593+297.978+291.383L287.472+285.852L276.966+291.383C276.031+291.88+274.886+291.799+274.031+291.173C273.159+290.547+272.742+289.49+272.908+288.426L274.926+276.738L266.416+268.459C265.669+267.712+265.378+266.604+265.709+265.591C266.044+264.593+266.917+263.842+267.955+263.691L279.706+261.986L284.972+251.355C285.428+250.397+286.408+249.793+287.469+249.793C288.529+249.793+289.509+250.397+289.965+251.355L295.209+261.986L306.96+263.691C308.02+263.842+308.893+264.589+309.228+265.591C309.537+266.604+309.269+267.712+308.521+268.459L300.011+276.738L302.029+288.426C302.195+289.49+301.782+290.547+300.906+291.173C300.438+291.508+299.853+291.714+299.271+291.714ZM287.476+279.904C287.914+279.904+288.371+280.026+288.768+280.236L295.57+283.812L294.263+276.244C294.115+275.324+294.428+274.41+295.073+273.784L300.585+268.419L292.974+267.296C292.061+267.167+291.291+266.604+290.875+265.779L287.483+258.889L284.07+265.779C283.679+266.607+282.888+267.167+281.993+267.296L274.381+268.419L279.872+273.784C280.538+274.41+280.829+275.324+280.685+276.244L279.393+283.812L286.194+280.236C286.581+280.026+287.019+279.904+287.476+279.904Z" opacity="1" fill="#ffffff"/>
<path d="M259.81+328.914C259.372+328.914+258.937+328.807+258.517+328.575L247.864+323L237.214+328.575C236.275+329.08+235.134+328.991+234.279+328.365C233.429+327.747+232.987+326.705+233.178+325.67L235.215+313.809L226.605+305.402C225.836+304.654+225.563+303.553+225.898+302.533C226.233+301.535+227.102+300.784+228.145+300.64L240.039+298.913L245.364+288.138C245.824+287.181+246.8+286.577+247.86+286.577C248.921+286.577+249.9+287.181+250.361+288.138L255.682+298.913L267.58+300.64C268.64+300.784+269.513+301.531+269.826+302.533C270.157+303.553+269.889+304.654+269.137+305.402L260.524+313.809L262.542+325.67C262.73+326.705+262.295+327.747+261.441+328.365C260.977+328.748+260.395+328.914+259.81+328.914ZM247.868+317.053C248.328+317.053+248.762+317.16+249.16+317.384L256.109+321.008L254.78+313.312C254.632+312.391+254.945+311.478+255.59+310.807L261.205+305.361L253.45+304.231C252.533+304.087+251.742+303.527+251.348+302.691L247.875+295.665L244.421+302.691C244.005+303.527+243.217+304.087+242.3+304.231L234.559+305.361L240.175+310.807C240.819+311.478+241.132+312.391+240.967+313.312L239.637+321.008L246.586+317.384C246.977+317.16+247.433+317.053+247.868+317.053Z" opacity="1" fill="#ffffff"/>
</g>
</g>
<path d="M609.243+43.6354C581.054+43.6354+554.915+48.2466+530.827+57.4718C507.251+66.6971+486.751+79.5101+469.325+95.911C452.411+111.286+439.086+130.761+429.348+154.338C421.148+174.326+416.535+196.108+415.51+219.683L415.51+242.747L483.162+242.747L483.162+219.683C484.187+202.257+487.006+188.164+491.619+177.4C497.769+162.538+506.225+149.213+516.988+137.425C529.801+125.637+543.127+116.925+556.964+111.287C572.852+105.137+590.278+102.062+609.241+102.062L706.107+102.062L706.107+43.6354L609.241+43.6354L609.243+43.6354ZM638.458+216.608L638.459+231.214L639.228+231.214C638.203+247.614+635.128+262.733+630.003+276.572C623.34+292.46+614.883+305.529+604.633+315.779C593.357+327.055+580.033+335.768+564.657+341.918C548.769+348.068+531.343+351.143+512.38+351.143L415.514+351.143L415.514+409.57L512.38+409.57C540.568+409.57+566.707+404.958+590.795+395.732C614.371+386.506+634.872+373.693+652.298+357.293C670.236+339.355+683.56+319.88+692.273+298.867C701.498+278.366+706.111+255.816+706.111+231.215L706.111+216.608L638.459+216.608L638.458+216.608ZM857.401+42.8679L785.905+42.8679L928.895+265.042L928.895+410.344L998.853+410.344L998.853+263.507L857.401+42.8679ZM1142.62+42.8679L1075.73+42.8679L991.167+163.569L1028.84+214.308L1142.62+42.8679ZM1208.58+409.573L1272.38+409.573L1272.38+213.535L1208.58+123.589L1208.58+409.577L1208.58+409.573ZM1463.81+43.6354L1463.81+296.56L1283.15+43.6354L1213.96+43.6354L1473.81+409.576L1526.85+409.576L1526.85+43.6354C1526.85+43.6354+1463.81+43.6354+1463.81+43.6354ZM1645.85+152.804C1655.08+130.254+1668.4+111.034+1685.83+95.1464C1701.72+79.2582+1722.22+66.4452+1747.33+56.7072C1772.45+46.9693+1798.84+42.1003+1826.52+42.1003L1911.85+42.1003L1911.85+100.527L1827.28+100.527C1807.3+100.527+1789.61+103.858+1774.24+110.521C1757.84+117.184+1744.51+125.896+1734.26+136.66C1723.5+146.909+1714.79+160.235+1708.13+176.635C1701.98+191.498+1698.9+208.154+1698.9+226.605C1698.9+245.055+1701.98+261.712+1708.13+276.575C1714.28+291.95+1722.99+305.275+1734.26+316.551C1744.51+326.801+1757.84+335.257+1774.24+341.92C1790.64+348.07+1808.32+351.145+1827.28+351.145L1911.85+351.145L1911.85+409.572L1826.52+409.572C1797.82+409.572+1771.68+404.96+1748.1+395.734C1723.5+385.484+1702.74+372.414+1685.83+356.526C1668.4+340.126+1655.08+320.65+1645.85+298.1C1636.12+274.524+1631.25+250.436+1631.25+225.835C1631.25+199.696+1636.12+175.353+1645.85+152.802L1645.85+152.804Z" opacity="1" fill="#808080"/>
</g>
</g>
</g>
</g>
</svg>