<?xml version="1.0" encoding="UTF-8" standalone="no"?>
<!-- Created with Vectornator for iOS (http://vectornator.io/) -->

<svg
   height="442.21896"
   style="clip-rule:evenodd;fill-rule:nonzero;stroke-linecap:round;stroke-linejoin:round"
   xml:space="preserve"
   width="389.15271"
   version="1.1"
   viewBox="0 0 389.1527 442.21897"
   id="svg12"
   sodipodi:docname="GSYNC-MOD.svg"
   inkscape:version="1.4.1 (1:1.4.1+202503302257+93de688d07)"
   xmlns:inkscape="http://www.inkscape.org/namespaces/inkscape"
   xmlns:sodipodi="http://sodipodi.sourceforge.net/DTD/sodipodi-0.dtd"
   xmlns:xlink="http://www.w3.org/1999/xlink"
   xmlns="http://www.w3.org/2000/svg"
   xmlns:svg="http://www.w3.org/2000/svg"
   xmlns:vectornator="http://vectornator.io"><sodipodi:namedview
   id="namedview12"
   pagecolor="#ffffff"
   bordercolor="#000000"
   borderopacity="0.25"
   inkscape:showpageshadow="2"
   inkscape:pageopacity="0.0"
   inkscape:pagecheckerboard="0"
   inkscape:deskcolor="#d1d1d1"
   inkscape:zoom="0.45226464"
   inkscape:cx="975.09281"
   inkscape:cy="43.116349"
   inkscape:window-width="1632"
   inkscape:window-height="749"
   inkscape:window-x="167"
   inkscape:window-y="128"
   inkscape:window-maximized="0"
   inkscape:current-layer="svg12" />
<metadata
   id="metadata1">
<vectornator:setting
   key="DimensionsVisible"
   value="1" />
<vectornator:setting
   key="PencilOnly"
   value="0" />
<vectornator:setting
   key="SnapToPoints"
   value="0" />
<vectornator:setting
   key="OutlineMode"
   value="0" />
<vectornator:setting
   key="CMYKEnabledKey"
   value="0" />
<vectornator:setting
   key="RulersVisible"
   value="1" />
<vectornator:setting
   key="SnapToEdges"
   value="0" />
<vectornator:setting
   key="GuidesVisible"
   value="1" />
<vectornator:setting
   key="DisplayWhiteBackground"
   value="0" />
<vectornator:setting
   key="doHistoryDisabled"
   value="0" />
<vectornator:setting
   key="SnapToGuides"
   value="1" />
<vectornator:setting
   key="TimeLapseWatermarkDisabled"
   value="0" />
<vectornator:setting
   key="Units"
   value="Points" />
<vectornator:setting
   key="DynamicGuides"
   value="0" />
<vectornator:setting
   key="IsolateActiveLayer"
   value="0" />
<vectornator:setting
   key="SnapToGrid"
   value="0" />
</metadata>
<defs
   id="defs1">
<path
   d="M -40.89,-44.0925 H 1998.75 V 508.251 H -40.89 Z"
   id="Mask" />
<clipPath
   clipPathUnits="userSpaceOnUse"
   id="clipPath16"><rect
     style="fill:none"
     id="rect17"
     width="389.15271"
     height="442.21896"
     x="4.4221897"
     y="4.4221897" /></clipPath></defs>
<g
   id="Layer 1"
   vectornator:layerName="Layer 1"
   clip-path="url(#clipPath16)"
   transform="translate(-4.4221897,-4.4221897)">
<g
   opacity="1"
   vectornator:mask="#Mask"
   id="g12">
<clipPath
   id="ClipPath">
<use
   xlink:href="#Mask"
   fill="none"
   overflow="visible"
   id="use1" />
</clipPath>
<g
   clip-path="url(#ClipPath)"
   id="g11">
<g
   opacity="1"
   id="g10">
<g
   opacity="1"
   id="g2">
<path
   d="m -653.89,-111.334 c -183.045,-0.004 -331.433,148.3837 -331.429,331.428 0.006,183.038 148.391,331.414 331.429,331.41 183.037,0.004 331.422,-148.372 331.429,-331.41 0.004,-183.0442 -148.384,-331.432 -331.429,-331.428 z m -66.24,74.6524 c 137.136,-2.8714 257.932,104.7836 279.449,249.0476 23.141,155.116 -76.35,295.996 -222.22,314.667 -145.874,18.668 -282.887,-91.946 -306.028,-247.064 -23.141,-155.115 76.35,-295.995 222.22,-314.6665 8.806,-1.1313 17.677,-1.7935 26.579,-1.9841 z"
   opacity="1"
   fill="#ffffff"
   id="path1" />
<path
   d="m -686.632,77.6313 c -241.92,64.8217 -420.928,181.1877 -399.828,259.9037 12.1,44.296 49.66,69.032 165.219,66.917 -89.859,-2.122 -109.509,-24.133 -119.459,-60.588 -19.12,-71.329 143.093,-176.77 362.301,-235.506 219.209,-58.7373 412.406,-48.5268 431.512,22.805 9.665,36.822 -29.305,84.778 -107.139,131.847 102.258,-56.232 155.409,-115.528 143.607,-160.208 C -231.5,24.0784 -444.712,12.8085 -686.632,77.6313 Z"
   opacity="1"
   fill="#ffffff"
   id="path2" />
</g>
<path
   d=""
   opacity="1"
   fill="#ffffff"
   id="path3" />
<g
   opacity="1"
   id="g9">
<path
   d="M -3.8782,42.1003 H 364.365 v 0 368.2437 0 H -3.8782 v 0 z"
   opacity="1"
   fill="none"
   id="path4" />
<g
   opacity="1"
   id="g8">
<path
   d="m 181.282,356.367 c -8.82,0 -17.661,-0.87 -26.23,-2.641 -8.363,-1.727 -16.56,-4.264 -24.422,-7.597 -7.718,-3.244 -15.142,-7.28 -22.113,-11.975 -6.886,-4.662 -13.3746,-10.035 -19.2628,-15.893 -5.8882,-5.911 -11.2314,-12.377 -15.8934,-19.259 -4.6988,-6.971 -8.7384,-14.399 -12.001,-22.117 -3.3289,-7.862 -5.8661,-16.081 -7.5711,-24.44 -1.7676,-8.573 -2.6624,-17.393 -2.6624,-26.212 0,-8.842 0.8948,-17.661 2.6624,-26.252 1.705,-8.341 4.2422,-16.56 7.5711,-24.422 3.2663,-7.718 7.3022,-15.142 12.001,-22.113 4.662,-6.886 10.0052,-13.375 15.8934,-19.241 5.8882,-5.906 12.3768,-11.253 19.2628,-15.893 6.971,-4.699 14.395,-8.738 22.113,-12.023 7.862,-3.307 16.059,-5.866 24.422,-7.5713 8.569,-1.7491 17.41,-2.6403 26.23,-2.6403 15.956,0 31.54,2.8502 46.329,8.4656 1.082,0.416 1.789,1.455 1.789,2.619 0,1.163 -0.707,2.205 -1.789,2.621 -48.012,18.265 -80.255,65.069 -80.255,116.45 0,51.363 32.243,98.141 80.255,116.446 1.082,0.416 1.789,1.44 1.789,2.603 0,1.146 -0.707,2.188 -1.789,2.597 -14.789,5.637 -30.373,8.488 -46.329,8.488 z m 0,-254.718 c -68.685,0 -124.5621,55.896 -124.5621,124.584 0,68.688 55.8731,124.558 124.5621,124.558 12.837,0 25.401,-1.933 37.487,-5.741 -9.589,-4.286 -18.618,-9.732 -26.937,-16.224 -10.174,-7.969 -19.097,-17.37 -26.502,-27.935 -7.531,-10.716 -13.353,-22.448 -17.348,-34.847 -4.117,-12.811 -6.198,-26.23 -6.198,-39.815 0,-13.603 2.081,-26.999 6.198,-39.833 3.995,-12.42 9.821,-24.153 17.348,-34.843 7.405,-10.568 16.328,-19.97 26.502,-27.916 8.322,-6.511 17.348,-11.961 26.937,-16.247 -12.086,-3.804 -24.65,-5.741 -37.487,-5.741 z"
   opacity="1"
   fill="#ffffff"
   id="path5" />
<path
   d="m 247.536,281.897 c -0.438,0 -0.873,-0.122 -1.292,-0.332 l -19.635,-10.322 -19.638,10.322 c -0.958,0.497 -2.077,0.416 -2.954,-0.21 -0.854,-0.626 -1.292,-1.683 -1.104,-2.725 l 3.763,-21.866 -15.89,-15.492 c -0.769,-0.729 -1.038,-1.856 -0.707,-2.85 0.335,-1.016 1.208,-1.749 2.247,-1.919 l 21.965,-3.178 9.818,-19.907 c 0.46,-0.935 1.439,-1.539 2.5,-1.539 1.061,0 2.04,0.604 2.497,1.539 l 9.817,19.907 21.966,3.178 c 1.042,0.17 1.918,0.899 2.246,1.919 0.335,0.998 0.044,2.121 -0.703,2.85 l -15.894,15.492 3.745,21.866 c 0.188,1.042 -0.246,2.099 -1.101,2.725 -0.478,0.354 -1.06,0.542 -1.646,0.542 z m -48.803,-40.665 12.877,12.542 c 0.667,0.663 0.98,1.583 0.814,2.497 l -3.038,17.723 15.934,-8.363 c 0.792,-0.43 1.768,-0.43 2.578,0 l 15.934,8.363 -3.035,-17.723 c -0.169,-0.914 0.144,-1.834 0.788,-2.497 l 12.9,-12.542 -17.808,-2.604 c -0.914,-0.121 -1.705,-0.703 -2.099,-1.517 l -7.965,-16.14 -7.969,16.14 c -0.394,0.814 -1.186,1.396 -2.099,1.517 z"
   opacity="1"
   fill="#ffffff"
   id="path6" />
<path
   d="m 299.271,291.714 c -0.438,0 -0.895,-0.121 -1.293,-0.331 l -10.506,-5.531 -10.506,5.531 c -0.935,0.497 -2.08,0.416 -2.935,-0.21 -0.872,-0.626 -1.289,-1.683 -1.123,-2.747 l 2.018,-11.688 -8.51,-8.279 c -0.747,-0.747 -1.038,-1.855 -0.707,-2.868 0.335,-0.998 1.208,-1.749 2.246,-1.9 l 11.751,-1.705 5.266,-10.631 c 0.456,-0.958 1.436,-1.562 2.497,-1.562 1.06,0 2.04,0.604 2.496,1.562 l 5.244,10.631 11.751,1.705 c 1.06,0.151 1.933,0.898 2.268,1.9 0.309,1.013 0.041,2.121 -0.707,2.868 l -8.51,8.279 2.018,11.688 c 0.166,1.064 -0.247,2.121 -1.123,2.747 -0.468,0.335 -1.053,0.541 -1.635,0.541 z m -11.795,-11.81 c 0.438,0 0.895,0.122 1.292,0.332 l 6.802,3.576 -1.307,-7.568 c -0.148,-0.92 0.165,-1.834 0.81,-2.46 l 5.512,-5.365 -7.611,-1.123 c -0.913,-0.129 -1.683,-0.692 -2.099,-1.517 l -3.392,-6.89 -3.413,6.89 c -0.391,0.828 -1.182,1.388 -2.077,1.517 l -7.612,1.123 5.491,5.365 c 0.666,0.626 0.957,1.54 0.813,2.46 l -1.292,7.568 6.801,-3.576 c 0.387,-0.21 0.825,-0.332 1.282,-0.332 z"
   opacity="1"
   fill="#ffffff"
   id="path7" />
<path
   d="m 259.81,328.914 c -0.438,0 -0.873,-0.107 -1.293,-0.339 L 247.864,323 l -10.65,5.575 c -0.939,0.505 -2.08,0.416 -2.935,-0.21 -0.85,-0.618 -1.292,-1.66 -1.101,-2.695 l 2.037,-11.861 -8.61,-8.407 c -0.769,-0.748 -1.042,-1.849 -0.707,-2.869 0.335,-0.998 1.204,-1.749 2.247,-1.893 l 11.894,-1.727 5.325,-10.775 c 0.46,-0.957 1.436,-1.561 2.496,-1.561 1.061,0 2.04,0.604 2.501,1.561 l 5.321,10.775 11.898,1.727 c 1.06,0.144 1.933,0.891 2.246,1.893 0.331,1.02 0.063,2.121 -0.689,2.869 l -8.613,8.407 2.018,11.861 c 0.188,1.035 -0.247,2.077 -1.101,2.695 -0.464,0.383 -1.046,0.549 -1.631,0.549 z m -11.942,-11.861 c 0.46,0 0.894,0.107 1.292,0.331 l 6.949,3.624 -1.329,-7.696 c -0.148,-0.921 0.165,-1.834 0.81,-2.505 l 5.615,-5.446 -7.755,-1.13 c -0.917,-0.144 -1.708,-0.704 -2.102,-1.54 l -3.473,-7.026 -3.454,7.026 c -0.416,0.836 -1.204,1.396 -2.121,1.54 l -7.741,1.13 5.616,5.446 c 0.644,0.671 0.957,1.584 0.792,2.505 l -1.33,7.696 6.949,-3.624 c 0.391,-0.224 0.847,-0.331 1.282,-0.331 z"
   opacity="1"
   fill="#ffffff"
   id="path8" />
</g>
</g>
<path
   d="m 609.243,43.6354 c -28.189,0 -54.328,4.6112 -78.416,13.8364 -23.576,9.2253 -44.076,22.0383 -61.502,38.4392 -16.914,15.375 -30.239,34.85 -39.977,58.427 -8.2,19.988 -12.813,41.77 -13.838,65.345 v 23.064 h 67.652 v -23.064 c 1.025,-17.426 3.844,-31.519 8.457,-42.283 6.15,-14.862 14.606,-28.187 25.369,-39.975 12.813,-11.788 26.139,-20.5 39.976,-26.138 15.888,-6.15 33.314,-9.225 52.277,-9.225 h 96.866 V 43.6354 h -96.866 z m 29.215,172.9726 10e-4,14.606 h 0.769 c -1.025,16.4 -4.1,31.519 -9.225,45.358 -6.663,15.888 -15.12,28.957 -25.37,39.207 -11.276,11.276 -24.6,19.989 -39.976,26.139 -15.888,6.15 -33.314,9.225 -52.277,9.225 h -96.866 v 58.427 h 96.866 c 28.188,0 54.327,-4.612 78.415,-13.838 23.576,-9.226 44.077,-22.039 61.503,-38.439 17.938,-17.938 31.262,-37.413 39.975,-58.426 9.225,-20.501 13.838,-43.051 13.838,-67.652 V 216.608 H 638.459 Z M 857.401,42.8679 h -71.496 l 142.99,222.1741 v 145.302 h 69.958 V 263.507 Z m 285.219,0 h -66.89 l -84.563,120.7011 37.673,50.739 z m 65.96,366.7051 h 63.8 V 213.535 l -63.8,-89.946 V 409.577 Z M 1463.81,43.6354 V 296.56 L 1283.15,43.6354 h -69.19 l 259.85,365.9406 h 53.04 V 43.6354 Z m 182.04,109.1686 c 9.23,-22.55 22.55,-41.77 39.98,-57.6576 15.89,-15.8882 36.39,-28.7012 61.5,-38.4392 25.12,-9.7379 51.51,-14.6069 79.19,-14.6069 h 85.33 v 58.4267 h -84.57 c -19.98,0 -37.67,3.331 -53.04,9.994 -16.4,6.663 -29.73,15.375 -39.98,26.139 -10.76,10.249 -19.47,23.575 -26.13,39.975 -6.15,14.863 -9.23,31.519 -9.23,49.97 0,18.45 3.08,35.107 9.23,49.97 6.15,15.375 14.86,28.7 26.13,39.976 10.25,10.25 23.58,18.706 39.98,25.369 16.4,6.15 34.08,9.225 53.04,9.225 h 84.57 v 58.427 h -85.33 c -28.7,0 -54.84,-4.612 -78.42,-13.838 -24.6,-10.25 -45.36,-23.32 -62.27,-39.208 -17.43,-16.4 -30.75,-35.876 -39.98,-58.426 -9.73,-23.576 -14.6,-47.664 -14.6,-72.265 0,-26.139 4.87,-50.482 14.6,-73.033 z"
   opacity="1"
   fill="#808080"
   id="path9" />
</g>
</g>
</g>
</g>
<rect
   style="fill:none"
   id="rect12"
   width="386.94159"
   height="444.43005"
   x="0"
   y="-2.2110949" /><rect
   style="fill:none"
   id="rect13"
   width="395.78598"
   height="442.21896"
   x="-2.2110949"
   y="0" /><rect
   style="fill:none"
   id="rect14"
   width="386.94159"
   height="440.0079"
   x="-2.2110949"
   y="2.2110944" /><rect
   style="fill:none"
   id="rect15"
   width="402.41928"
   height="440.00787"
   x="-2.2110915"
   y="9.5367432e-07" /></svg>
